<?xml version="1.0" standalone="no"?>
<!DOCTYPE svg PUBLIC "-//W3C//DTD SVG 20010904//EN"
 "http://www.w3.org/TR/2001/REC-SVG-20010904/DTD/svg10.dtd">
<svg version="1.0" xmlns="http://www.w3.org/2000/svg"
 width="256.000000pt" height="256.000000pt" viewBox="0 0 256.000000 256.000000"
 preserveAspectRatio="xMidYMid meet">

<g transform="translate(0.000000,256.000000) scale(0.100000,-0.100000)"
fill="#000000" stroke="none">
<path d="M180 2554 c0 -3 14 -33 32 -66 44 -83 74 -70 77 35 l1 37 -55 0 c-30
0 -55 -3 -55 -6z"/>
<path d="M594 2545 c3 -8 -2 -22 -11 -31 -11 -11 -18 -13 -21 -5 -3 8 -9 8
-23 1 -15 -8 -19 -7 -19 5 0 19 -34 20 -49 1 -10 -11 -9 -16 5 -24 24 -14 9
-52 -21 -52 -13 0 -31 -7 -40 -16 -22 -23 -55 -89 -55 -113 0 -11 -5 -23 -11
-27 -16 -9 -5 -75 21 -129 12 -25 30 -76 40 -113 10 -37 33 -105 50 -152 18
-47 39 -122 46 -168 7 -46 22 -101 33 -122 14 -27 18 -49 14 -73 -3 -21 1 -53
10 -79 9 -23 18 -84 22 -134 3 -50 10 -106 15 -124 11 -38 23 -333 21 -486 -2
-85 0 -102 14 -108 19 -7 39 33 50 101 8 51 26 64 71 51 54 -15 77 4 72 59 -2
34 -1 41 7 28 49 -83 98 -148 136 -181 96 -82 124 -104 137 -104 6 0 12 -7 12
-15 0 -12 15 -14 83 -12 89 3 106 11 258 121 54 39 129 131 129 157 0 5 4 9 9
9 4 0 23 30 42 67 l34 68 6 -59 c5 -42 2 -69 -8 -95 -17 -41 -154 -240 -218
-316 -23 -27 -72 -88 -110 -135 -68 -86 -124 -138 -208 -197 -33 -23 -46 -39
-49 -60 -3 -27 -5 -28 -66 -31 -55 -3 -67 0 -93 23 -17 14 -35 25 -40 25 -13
0 -52 87 -45 99 7 10 19 234 19 324 -1 119 -23 187 -39 119 -9 -37 -34 -64
-49 -52 -20 17 -68 -24 -108 -91 -37 -60 -39 -67 -33 -126 5 -61 5 -62 -29
-88 l-35 -26 0 27 c0 22 -2 25 -15 14 -8 -7 -15 -19 -15 -26 0 -8 -4 -14 -10
-14 -5 0 -7 -6 -4 -13 4 -11 -63 -54 -71 -45 -4 3 27 68 53 113 10 17 24 50
31 75 7 25 21 62 32 82 12 24 19 57 19 95 -1 87 -28 350 -38 370 -6 10 -13 63
-17 118 -4 55 -16 134 -27 175 -12 42 -20 100 -19 133 1 32 -5 81 -13 110 -18
64 -52 221 -65 303 -5 34 -18 82 -29 105 -11 24 -28 71 -37 104 -18 61 -53
135 -65 135 -4 0 -12 -19 -19 -42 -7 -24 -21 -57 -32 -74 -10 -17 -19 -38 -19
-47 0 -44 -23 -117 -36 -117 -9 0 -14 8 -13 18 4 26 -42 97 -52 80 -5 -7 -9
-8 -9 -3 0 6 6 20 14 31 8 11 22 43 31 72 15 46 15 53 2 66 -11 11 -14 29 -10
60 4 46 -16 86 -44 86 -19 0 -19 -1126 0 -1133 9 -4 9 -7 -1 -18 -18 -20 -15
-63 9 -103 12 -20 24 -36 27 -36 4 0 15 12 25 26 15 19 18 40 16 87 -3 74 8
127 27 127 27 0 35 -39 28 -140 -4 -61 -3 -100 3 -100 5 0 10 6 11 13 10 128
17 169 38 214 13 28 24 68 24 88 0 20 6 48 14 63 7 15 19 57 26 94 14 78 29
104 55 94 16 -6 17 -15 12 -71 -3 -35 -13 -77 -21 -92 -8 -16 -12 -40 -9 -54
4 -20 -2 -32 -26 -51 -21 -18 -29 -33 -26 -47 8 -42 -19 -225 -41 -279 -8 -17
37 -33 54 -19 9 7 16 7 24 -1 7 -7 -4 -26 -41 -65 -28 -30 -51 -57 -51 -62 0
-4 11 -4 25 -1 20 5 25 3 25 -12 0 -19 -26 -61 -49 -78 -13 -10 -13 -17 -2
-52 8 -24 11 -52 6 -69 -4 -15 -8 -50 -10 -76 -2 -46 -1 -48 27 -54 38 -8 44
-24 23 -65 -28 -55 -55 -132 -55 -155 0 -12 -10 -48 -21 -79 -21 -54 -21 -58
-4 -70 16 -12 13 -16 -31 -43 l-48 -31 1157 0 1157 0 0 154 c0 146 -1 154 -22
168 -17 11 -20 20 -14 42 5 19 11 26 22 22 12 -5 14 4 12 51 -2 34 -8 58 -15
61 -9 2 -11 -5 -7 -27 5 -24 3 -31 -9 -31 -9 0 -19 -9 -22 -20 -4 -11 -11 -17
-17 -14 -6 4 -3 -7 8 -24 10 -17 15 -34 12 -38 -11 -10 -79 17 -85 34 -5 12
-8 11 -14 -6 -8 -21 -9 -21 -46 -6 -46 20 -53 29 -53 74 -1 19 -7 48 -13 64
l-13 29 -29 -30 c-17 -17 -54 -63 -84 -102 -30 -39 -58 -71 -62 -71 -49 0 -89
52 -69 89 10 20 10 21 -8 10 -28 -18 -70 -4 -78 26 -9 37 2 68 41 119 19 26
35 47 35 49 0 2 -16 1 -35 -1 -46 -5 -66 13 -105 95 -21 44 -36 63 -48 63 -11
0 -27 9 -38 21 -18 20 -18 21 1 35 30 22 64 28 91 15 14 -6 30 -9 35 -5 14 8
79 152 80 177 1 34 -13 101 -24 115 -15 19 -57 15 -65 -7 -11 -28 -69 -73 -89
-69 -14 3 -17 11 -15 38 6 62 11 73 30 58 14 -11 14 -10 -1 12 -9 13 -17 43
-18 65 l-1 40 -8 -35 c-5 -19 -11 -55 -13 -80 -12 -113 -34 -186 -66 -214 -11
-11 -21 -26 -21 -35 0 -15 -39 -73 -40 -60 0 4 -15 -7 -34 -25 -48 -44 -97
-79 -116 -81 -3 0 -18 -13 -34 -28 -16 -15 -32 -27 -35 -28 -3 0 -15 -3 -26
-5 -20 -5 -132 -5 -257 -1 -60 2 -72 6 -116 40 -27 20 -62 55 -77 77 -15 22
-31 40 -35 40 -4 0 -11 11 -14 24 -3 14 -14 27 -24 30 -43 14 -110 184 -114
291 -1 37 -2 42 -5 17 -3 -20 -9 -32 -16 -29 -23 7 -36 55 -47 168 -14 152
-19 177 -39 192 -10 6 -25 23 -33 37 -21 33 -50 168 -46 211 3 31 6 34 37 37
41 4 55 -9 56 -51 0 -22 4 -31 14 -29 11 2 13 -7 8 -46 -4 -38 0 -66 18 -118
14 -38 25 -77 25 -86 0 -10 4 -18 8 -18 5 0 13 48 18 108 6 59 17 123 26 142
22 48 27 75 17 92 -5 8 -4 30 1 49 10 36 17 70 27 129 3 19 10 40 15 47 5 7 5
14 -2 18 -6 4 -10 12 -9 18 1 7 1 19 0 27 -1 13 -2 13 -11 0 -8 -13 -10 -12
-10 3 0 9 6 17 14 17 8 0 17 -8 19 -17 3 -12 5 -8 6 9 0 14 -5 29 -11 31 -10
4 -9 8 2 16 10 7 17 6 23 -2 5 -7 6 -3 2 10 -3 12 -1 24 5 28 20 12 14 22 -58
100 -28 31 -72 93 -72 102 0 4 -12 21 -26 36 -25 28 -29 57 -8 64 20 7 166
-160 191 -219 7 -15 20 -31 30 -36 22 -12 61 1 69 23 7 18 66 55 88 55 9 0 35
9 57 19 22 11 46 19 52 17 7 -1 9 -1 4 1 -4 3 -5 9 -1 14 3 5 -2 9 -10 9 -9 0
-16 6 -16 14 0 18 -48 76 -62 76 -6 0 -8 -6 -5 -14 6 -16 -20 -26 -43 -17 -24
10 -24 52 0 58 27 7 21 23 -16 44 -24 15 -58 18 -218 18 -162 1 -187 -1 -182
-14z m156 -524 c-6 -22 -16 -43 -22 -47 -12 -7 -11 -4 14 69 16 47 23 31 8
-22z m-92 -87 c15 9 23 -23 12 -42 -9 -14 -10 -13 -5 5 5 17 3 21 -7 18 -8 -3
-22 1 -33 9 -12 10 -15 15 -7 16 7 0 10 6 7 13 -4 6 0 4 9 -7 8 -10 19 -15 24
-12z m-393 -306 c-3 -132 -1 -125 -32 -133 -19 -4 -29 -2 -35 9 -5 9 -20 16
-33 16 -35 0 -48 30 -32 76 l13 37 21 -22 21 -23 15 29 c9 16 12 35 8 42 -12
19 -1 59 18 64 37 10 38 8 36 -95z m-13 -260 c6 -60 -20 -138 -46 -138 -2 0
-8 25 -12 56 -5 44 -3 62 12 90 25 46 41 43 46 -8z m213 -478 c-3 -5 -10 -10
-16 -10 -5 0 -9 5 -9 10 0 6 7 10 16 10 8 0 12 -4 9 -10z m55 -199 c0 -12 -20
-25 -27 -18 -7 7 6 27 18 27 5 0 9 -4 9 -9z m-200 -586 c-7 -8 -18 -15 -24
-15 -6 0 -2 7 8 15 25 19 32 19 16 0z"/>
<path d="M1885 2508 c9 -69 25 -86 62 -68 22 11 24 14 11 17 -23 6 -23 27 -2
48 14 13 19 14 25 3 7 -10 9 -9 9 4 0 39 -11 48 -62 48 l-50 0 7 -52z"/>
<path d="M2016 2497 c3 -10 9 -15 12 -12 3 3 0 11 -7 18 -10 9 -11 8 -5 -6z"/>
<path d="M1553 2433 c-32 -6 -29 -21 16 -73 l38 -44 -5 33 c-3 20 -12 35 -24
40 -18 6 -18 8 -4 20 17 14 22 32 9 30 -5 -1 -18 -4 -30 -6z"/>
<path d="M2050 2375 c-6 -14 -10 -35 -10 -45 0 -20 65 -92 74 -83 8 8 -5 66
-21 88 -7 11 -13 27 -13 37 0 29 -19 31 -30 3z"/>
<path d="M82 2365 c0 -16 2 -22 5 -12 2 9 2 23 0 30 -3 6 -5 -1 -5 -18z"/>
<path d="M1680 2367 c0 -7 9 -18 20 -25 11 -7 20 -19 20 -28 0 -14 3 -14 15
-4 9 7 19 9 23 5 4 -4 1 -10 -5 -12 -7 -3 -13 -11 -13 -20 0 -17 -24 -43 -39
-43 -6 0 -11 -4 -11 -9 0 -14 26 -32 34 -23 4 4 7 3 6 -3 -1 -5 -1 -17 0 -25
1 -8 5 -1 9 15 3 17 13 30 21 30 11 0 14 10 12 43 -3 30 0 42 10 42 7 0 -4 16
-25 35 -38 35 -77 46 -77 22z"/>
<path d="M170 2294 c-7 -16 -7 -32 0 -44 5 -10 10 -33 10 -51 0 -19 4 -29 8
-23 14 15 35 120 28 133 -12 19 -36 12 -46 -15z"/>
<path d="M2167 2285 c-14 -10 -16 -18 -7 -40 6 -15 13 -25 17 -21 3 3 16 -22
28 -56 21 -58 63 -137 75 -138 5 0 8 23 10 73 1 9 5 15 10 12 4 -3 11 3 15 12
7 19 -26 53 -51 53 -15 0 -44 50 -44 77 0 27 -32 44 -53 28z"/>
<path d="M1291 2257 c-16 -17 -24 -19 -30 -9 -4 7 -15 10 -23 7 -9 -4 -19 -2
-22 3 -8 13 -80 3 -126 -16 -41 -17 -46 -16 -42 12 2 19 2 20 -11 4 -8 -10
-16 -15 -19 -12 -3 3 -12 -8 -19 -24 -17 -40 -46 -57 -66 -41 -12 11 -14 10
-13 -2 1 -7 2 -21 1 -29 -1 -13 -2 -13 -12 0 -8 13 -12 12 -26 -8 l-16 -24
-14 24 c-14 23 -14 23 -8 -5 3 -17 2 -26 -4 -23 -5 4 -12 -3 -16 -14 -3 -11
-11 -20 -16 -20 -5 0 -9 -7 -9 -15 0 -17 35 -21 45 -5 4 6 11 8 16 5 5 -4 9
-1 9 5 0 6 4 9 10 5 5 -3 26 1 46 10 20 8 45 15 55 15 9 0 24 6 31 14 8 7 27
12 43 12 17 -1 40 2 52 6 12 4 23 3 25 -3 2 -5 23 -10 48 -12 25 -1 52 -9 61
-18 14 -14 23 -15 58 -6 34 9 46 8 70 -6 16 -9 36 -17 44 -17 8 0 20 -7 28
-16 12 -15 62 -15 100 0 16 7 63 -26 53 -37 -3 -3 10 -27 30 -53 20 -26 37
-56 37 -68 1 -12 3 -48 4 -81 1 -33 7 -73 13 -88 7 -16 12 -35 12 -43 0 -8 4
-14 8 -14 18 0 35 -82 42 -201 4 -68 8 -114 8 -101 1 12 9 25 17 28 17 7 21
44 5 44 -17 0 -11 29 15 70 14 22 25 43 25 48 0 4 5 13 12 20 18 18 48 -15 48
-53 0 -24 6 -35 25 -43 22 -10 25 -9 25 7 0 45 -14 84 -32 88 -10 3 -18 14
-18 27 0 12 -7 31 -15 42 -8 10 -14 28 -14 39 0 11 3 14 6 8 2 -7 8 -13 13
-13 10 0 -1 42 -23 91 -9 19 -19 53 -22 76 -4 24 -13 47 -21 51 -10 5 -15 24
-16 50 0 28 -5 42 -14 42 -8 0 -11 6 -8 15 4 8 1 15 -5 15 -6 0 -14 18 -17 40
-5 33 -10 39 -24 35 -14 -4 -20 1 -25 24 -6 29 -25 53 -25 33 0 -5 -7 -9 -15
-9 -8 0 -15 5 -15 10 0 5 -7 4 -15 -3 -14 -11 -14 -10 -5 14 12 34 6 46 -24
46 -12 0 -28 6 -34 12 -10 10 -17 10 -32 0 -11 -6 -21 -8 -25 -2 -3 5 -19 8
-36 8 -17 -1 -34 5 -39 12 -6 10 -9 9 -13 -1 -5 -12 -8 -11 -19 1 -7 9 -22 14
-32 12 -11 -2 -25 3 -31 11 -10 14 -14 14 -34 -6z m309 -83 c0 -8 -5 -12 -10
-9 -6 4 -8 11 -5 16 9 14 15 11 15 -7z"/>
<path d="M1958 2219 c-19 -11 -42 -74 -33 -89 10 -17 7 -138 -5 -159 -5 -11
-7 -27 -4 -36 6 -14 9 -13 30 6 13 12 35 39 50 61 21 29 38 41 71 49 48 13 52
23 22 58 -17 21 -22 22 -30 10 -5 -7 -9 -17 -9 -21 0 -5 -9 -8 -20 -8 -15 0
-20 7 -20 25 0 14 4 25 9 25 15 0 0 48 -23 69 -15 14 -26 17 -38 10z m42 -109
c0 -5 -5 -10 -11 -10 -5 0 -7 5 -4 10 3 6 8 10 11 10 2 0 4 -4 4 -10z"/>
<path d="M880 2180 c0 -5 5 -10 10 -10 6 0 10 5 10 10 0 6 -4 10 -10 10 -5 0
-10 -4 -10 -10z"/>
<path d="M1761 2146 c-9 -11 -9 -19 1 -35 7 -12 16 -21 20 -21 5 0 8 -5 8 -12
0 -9 -3 -9 -12 0 -7 7 -17 12 -22 12 -7 0 -8 -3 -1 -8 11 -8 61 -81 86 -126 9
-17 22 -32 30 -35 10 -3 8 4 -5 23 -11 17 -15 37 -12 52 5 19 3 22 -11 17 -16
-6 -17 -5 -3 13 8 10 19 22 23 25 16 11 2 44 -18 44 -13 0 -22 10 -29 33 -10
34 -35 43 -55 18z"/>
<path d="M810 2118 c0 -19 2 -20 10 -8 13 19 13 30 0 30 -5 0 -10 -10 -10 -22z"/>
<path d="M2133 2003 c-10 -10 -31 -25 -46 -33 -16 -8 -35 -26 -43 -41 -7 -15
-32 -48 -54 -74 -22 -25 -40 -50 -40 -56 0 -5 -7 -9 -15 -9 -18 0 -18 -5 -4
-31 5 -11 14 -17 19 -14 6 3 18 1 27 -4 10 -6 12 -11 6 -11 -18 0 22 -38 50
-49 37 -14 79 11 135 82 57 73 63 99 32 149 -11 18 -20 45 -20 59 0 39 -23 55
-47 32z m-73 -243 c0 -5 6 -7 14 -4 8 3 17 0 21 -6 11 -18 1 -21 -33 -8 -33
13 -43 28 -17 28 8 0 15 -4 15 -10z"/>
<path d="M1890 1900 c-9 -6 -10 -10 -3 -10 6 0 15 5 18 10 8 12 4 12 -15 0z"/>
<path d="M2360 1711 c0 -12 6 -21 15 -21 8 0 15 4 15 9 0 5 -7 14 -15 21 -13
10 -15 9 -15 -9z"/>
<path d="M2230 1710 c-8 -5 -12 -12 -9 -15 8 -8 39 5 39 16 0 11 -11 11 -30
-1z"/>
<path d="M886 1691 c-4 -6 -2 -11 3 -11 6 0 11 -5 11 -11 0 -5 -5 -7 -12 -3
-7 4 -8 3 -4 -5 4 -6 11 -9 15 -7 4 3 38 -3 77 -13 48 -12 70 -22 72 -34 3
-14 -5 -17 -50 -17 -68 0 -121 -15 -155 -44 -43 -37 -24 -49 69 -44 61 4 81 9
92 23 9 12 15 15 20 7 4 -7 19 -12 33 -12 19 0 24 4 19 16 -4 12 -2 15 9 11 8
-4 17 -2 20 3 8 13 -17 50 -35 51 -9 0 -6 4 8 9 30 13 28 25 -12 55 -27 21
-50 28 -104 32 -46 4 -72 2 -76 -6z m119 -121 c15 -6 6 -9 -33 -9 -29 -1 -67
-8 -83 -17 -17 -8 -33 -13 -36 -11 -6 6 31 27 66 38 34 10 61 10 86 -1z"/>
<path d="M1350 1664 c-25 -9 -49 -20 -54 -24 -8 -8 -21 -110 -13 -110 2 0 32
12 67 26 73 30 113 27 172 -12 39 -25 64 -32 53 -14 -11 18 -66 42 -128 54
-61 13 -61 13 -37 29 14 9 54 20 90 25 l65 9 -37 16 c-46 21 -119 21 -178 1z"/>
<path d="M1858 1663 c7 -3 16 -2 19 1 4 3 -2 6 -13 5 -11 0 -14 -3 -6 -6z"/>
<path d="M2430 1584 c0 -8 5 -12 10 -9 6 4 8 11 5 16 -9 14 -15 11 -15 -7z"/>
<path d="M2008 1573 c-22 -6 -23 -32 -2 -40 16 -6 34 12 34 35 0 12 -3 13 -32
5z"/>
<path d="M1385 1551 c-16 -4 -41 -14 -55 -21 -20 -12 -22 -15 -8 -18 9 -2 27
2 39 8 17 10 23 9 30 -1 5 -8 9 -18 9 -22 0 -4 21 -7 48 -7 26 1 54 1 62 -1
28 -4 60 1 60 10 0 11 -84 47 -125 54 -16 3 -43 2 -60 -2z"/>
<path d="M2215 1551 c3 -5 0 -13 -6 -16 -6 -4 -8 -17 -5 -29 4 -16 -2 -26 -24
-41 -27 -18 -33 -37 -18 -60 14 -22 -18 -44 -58 -41 -70 6 -85 -16 -98 -150
-9 -87 -4 -96 44 -72 64 32 68 43 32 87 -23 29 -28 41 -19 50 8 8 8 11 -1 11
-6 0 -9 7 -5 16 4 11 9 12 16 5 6 -6 21 -11 33 -11 13 0 26 -5 29 -10 4 -6 12
-10 18 -9 29 3 37 -3 47 -41 6 -22 15 -40 20 -40 6 0 10 -5 10 -11 0 -6 -9 -9
-20 -6 -10 3 -19 2 -18 -2 4 -33 -4 -49 -22 -44 -11 3 -20 0 -20 -6 0 -5 -6
-8 -13 -5 -7 2 -26 -7 -41 -21 -40 -37 -74 -58 -85 -51 -16 10 -19 -18 -9 -74
5 -30 8 -80 5 -112 -4 -56 -4 -58 20 -58 38 0 63 -18 79 -56 8 -19 22 -37 32
-40 9 -3 25 -10 36 -16 17 -9 18 -6 14 26 -3 26 0 36 10 36 23 0 10 53 -16 66
-32 16 -52 56 -40 78 5 10 7 24 4 32 -5 13 -11 13 -40 -5 -50 -32 -91 -24 -51
9 9 7 13 15 11 18 -8 8 34 62 48 62 8 0 33 21 56 48 24 26 47 47 52 47 5 0 12
6 17 13 5 8 11 13 15 13 18 -3 23 1 38 27 10 16 15 38 12 49 -4 13 0 22 10 26
9 4 16 14 17 24 0 16 1 15 9 -2 8 -21 6 -43 -11 -135 -6 -30 -13 -65 -15 -76
-5 -26 -31 -39 -49 -24 -7 6 -20 7 -29 4 -14 -5 -16 -17 -12 -73 3 -36 5 -70
6 -74 0 -5 8 -6 19 -2 15 5 21 -4 35 -55 11 -38 22 -60 32 -60 7 0 14 6 14 14
0 7 7 19 16 26 18 16 44 75 44 101 0 10 5 21 12 25 7 5 9 1 6 -12 -4 -17 -1
-19 29 -16 l33 4 -2 100 c-2 90 -4 102 -26 124 -27 27 -23 54 8 54 17 0 20 6
20 38 0 37 -22 82 -40 82 -5 0 -18 -10 -30 -22 -19 -21 -20 -21 -20 -2 0 31
-16 50 -32 37 -7 -6 -24 -13 -38 -15 -24 -3 -25 0 -26 47 -1 28 -7 63 -13 80
-7 16 -11 44 -9 61 3 34 -15 64 -39 64 -8 0 -12 -4 -8 -9z"/>
<path d="M2108 1512 c-19 -11 -28 -25 -28 -43 0 -31 6 -38 29 -32 25 6 41 37
33 66 -7 25 -8 25 -34 9z"/>
<path d="M635 1510 c3 -5 11 -10 16 -10 6 0 7 5 4 10 -3 6 -11 10 -16 10 -6 0
-7 -4 -4 -10z"/>
<path d="M1822 1508 c-5 -7 -6 -22 -2 -33 7 -19 7 -19 18 2 21 38 8 61 -16 31z"/>
<path d="M2295 1463 c0 -47 0 -47 35 -47 40 -1 49 18 30 65 -9 22 -19 29 -39
29 -24 0 -26 -3 -26 -47z"/>
<path d="M681 1424 c0 -11 3 -14 6 -6 3 7 2 16 -1 19 -3 4 -6 -2 -5 -13z"/>
<path d="M2417 1413 c-12 -11 -8 -21 13 -26 15 -4 20 0 20 14 0 18 -20 26 -33
12z"/>
<path d="M1836 1287 c-10 -39 -7 -57 9 -51 16 7 21 59 6 68 -5 3 -11 -4 -15
-17z"/>
<path d="M702 1270 c0 -14 2 -19 5 -12 2 6 2 18 0 25 -3 6 -5 1 -5 -13z"/>
<path d="M1070 1254 c-11 -12 -11 -18 2 -30 13 -13 19 -14 37 -2 25 15 27 33
5 42 -23 9 -30 8 -44 -10z"/>
<path d="M1205 1250 c-10 -12 -25 -18 -32 -16 -14 6 -47 -47 -36 -58 11 -10
71 -7 79 5 3 6 0 15 -7 20 -11 7 -9 9 7 9 11 0 25 -5 31 -11 11 -11 53 -4 53
9 0 13 -51 62 -64 62 -7 0 -21 -9 -31 -20z"/>
<path d="M962 1085 c10 -10 141 -23 318 -31 113 -5 133 -4 122 7 -9 10 -47 14
-135 15 -67 1 -165 5 -217 9 -52 4 -92 4 -88 0z"/>
<path d="M80 820 c0 -113 3 -161 10 -154 6 6 13 37 16 70 3 32 7 65 10 73 2 8
-3 24 -11 37 -9 13 -11 24 -7 24 13 0 7 89 -6 102 -9 9 -12 -27 -12 -152z"/>
<path d="M1138 973 c7 -3 16 -2 19 1 4 3 -2 6 -13 5 -11 0 -14 -3 -6 -6z"/>
<path d="M1932 845 c-9 -19 -9 -25 1 -25 7 0 14 11 15 25 1 14 0 25 -2 25 -1
0 -8 -11 -14 -25z"/>
<path d="M2403 786 c-13 -7 -20 -15 -17 -18 3 -4 -1 -19 -9 -35 -8 -15 -17
-38 -21 -49 -6 -19 -3 -21 19 -16 32 6 53 -12 76 -63 l19 -40 0 69 c0 64 -1
68 -15 50 -13 -16 -14 -16 -9 -1 4 10 1 17 -6 17 -12 0 -8 47 7 86 6 17 -13
17 -44 0z"/>
<path d="M220 726 c0 -10 -6 -13 -16 -9 -12 4 -15 0 -13 -18 2 -13 -3 -35 -10
-48 -8 -14 -16 -41 -18 -60 -2 -20 -9 -58 -15 -85 -10 -45 -9 -49 16 -74 19
-20 29 -23 37 -15 6 6 8 17 3 24 -15 25 -15 82 0 143 8 34 17 72 20 86 2 14 7
32 11 41 3 10 2 20 -4 24 -6 3 -11 -1 -11 -9z"/>
<path d="M2302 607 c-21 -22 -21 -22 -2 -47 11 -14 20 -34 20 -44 0 -35 20 -3
21 34 2 71 -9 89 -39 57z"/>
<path d="M82 545 c0 -16 2 -22 5 -12 2 9 2 23 0 30 -3 6 -5 -1 -5 -18z"/>
<path d="M2017 538 c-13 -18 -28 -40 -32 -48 -16 -29 29 17 48 49 24 41 14 40
-16 -1z"/>
<path d="M82 490 c0 -14 2 -19 5 -12 2 6 2 18 0 25 -3 6 -5 1 -5 -13z"/>
<path d="M92 290 c-7 -23 -12 -93 -12 -165 0 -104 2 -125 15 -125 8 0 15 6 16
13 0 6 2 20 4 30 2 9 0 17 -3 17 -4 0 -6 25 -5 56 2 66 23 104 58 104 14 0 29
8 35 19 8 16 5 25 -12 44 -23 24 -59 47 -75 47 -4 0 -14 -18 -21 -40z"/>
</g>
</svg>
